<svg xmlns="http://www.w3.org/2000/svg" viewBox="0 0 512 512" role="img" aria-label="Horoscope zodiac icon">
  <g id="horoscope-icon" fill="currentColor" fill-rule="evenodd">
    <path id="shape-01" d="M286 448 L278 439 L266 437 L262 441 L262 447 L273 454 L273 457 L269 461 L257 465 L248 465 L235 460 L229 460 L225 468 L229 473 L242 478 L258 479 L268 477 L280 471 L285 465 L287 460 Z"/>
    <path id="shape-02" d="M285 418 L276 412 L263 409 L240 412 L231 417 L226 423 L224 428 L225 440 L233 449 L245 451 L249 447 L249 441 L238 434 L238 431 L243 426 L263 423 L276 428 L282 428 L286 423 Z"/>
    <path id="shape-03" d="M363 379 L356 380 L340 397 L324 404 L313 405 L309 409 L311 417 L315 419 L322 418 L336 441 L332 454 L338 459 L344 457 L347 452 L362 439 L374 434 L385 433 L389 431 L391 426 L388 420 L377 419 L363 396 L367 389 L367 383 Z M352 406 L362 423 L347 432 L337 415 Z"/>
    <path id="shape-04" d="M156 372 L151 377 L152 383 L161 387 L163 391 L135 413 L131 421 L130 429 L132 438 L140 449 L151 455 L163 456 L178 449 L186 434 L193 430 L194 423 L185 416 L179 416 L175 421 L170 436 L165 441 L157 442 L148 437 L144 429 L146 422 L152 416 L169 406 L175 399 L177 393 L174 380 L167 374 Z"/>
    <path id="shape-05" d="M395 322 L387 330 L384 337 L383 349 L386 358 L399 370 L405 372 L418 371 L423 381 L434 390 L439 389 L442 385 L442 380 L433 370 L432 363 L434 358 L442 352 L449 352 L455 355 L459 354 L462 351 L462 344 L451 338 L438 339 L433 329 L426 322 L417 318 L404 318 Z M406 332 L414 332 L423 340 L423 349 L421 353 L414 358 L403 356 L397 348 L399 338 Z"/>
    <path id="shape-06" d="M97 305 L91 308 L80 329 L56 328 L51 332 L51 338 L55 342 L74 344 L70 354 L70 369 L77 382 L88 392 L99 389 L130 371 L134 366 L133 361 L126 357 L93 376 L85 369 L84 356 L90 344 L115 345 L119 340 L115 332 L98 331 L96 329 L104 314 L103 309 Z"/>
    <path id="shape-07" d="M449 219 L445 223 L445 228 L447 231 L458 235 L460 238 L458 246 L452 249 L421 249 L417 257 L421 262 L457 264 L460 268 L460 273 L457 277 L447 280 L445 288 L449 292 L458 292 L469 285 L474 275 L474 266 L469 257 L474 245 L474 236 L466 223 L458 219 Z"/>
    <path id="shape-08" d="M55 219 L51 223 L51 234 L44 238 L37 248 L36 259 L41 270 L51 277 L51 288 L53 291 L61 292 L65 288 L65 268 L63 265 L53 262 L50 258 L50 253 L53 249 L61 247 L65 243 L65 223 L61 219 Z"/>
    <path id="shape-09" d="M88 216 L81 221 L81 288 L85 292 L91 292 L95 288 L95 221 Z"/>
    <path id="shape-10" d="M253 150 L249 154 L249 188 L247 190 L229 195 L213 167 L205 163 L201 165 L199 171 L216 202 L202 216 L174 200 L169 199 L165 201 L163 208 L167 213 L195 229 L188 249 L154 249 L150 253 L150 258 L152 261 L158 263 L190 264 L195 282 L167 298 L163 306 L165 310 L171 312 L202 295 L216 309 L200 337 L199 342 L201 346 L208 348 L213 344 L229 316 L249 323 L249 357 L253 361 L258 361 L262 357 L262 323 L264 321 L282 316 L298 344 L306 348 L310 346 L312 340 L295 309 L309 295 L337 311 L342 312 L346 310 L348 303 L344 298 L316 282 L322 263 L357 262 L361 258 L361 253 L357 249 L323 249 L321 247 L316 229 L347 210 L348 205 L346 201 L340 199 L300 223 L300 228 L307 244 L308 261 L302 280 L290 295 L276 304 L261 308 L241 306 L221 295 L209 280 L203 261 L204 244 L212 226 L226 212 L244 204 L261 203 L283 211 L288 211 L312 171 L310 165 L306 163 L301 164 L282 195 L264 190 L262 188 L262 154 L258 150 Z"/>
    <path id="shape-11" d="M434 121 L426 121 L415 138 L409 130 L405 128 L400 129 L397 133 L397 138 L401 144 L400 147 L382 147 L377 151 L377 157 L382 161 L397 162 L409 159 L416 170 L402 189 L401 198 L405 202 L412 201 L418 189 L423 184 L431 194 L438 193 L441 186 L436 177 L439 175 L457 175 L461 170 L457 162 L438 161 L429 164 L424 157 L422 151 L430 143 L437 129 L437 125 Z"/>
    <path id="shape-12" d="M244 120 L221 124 L201 131 L184 140 L164 155 L149 171 L137 189 L126 214 L124 229 L127 232 L134 232 L137 229 L145 204 L160 180 L180 160 L204 145 L231 136 L266 134 L288 138 L309 146 L332 161 L354 184 L368 209 L375 231 L377 266 L374 284 L368 302 L350 332 L332 350 L318 360 L288 373 L266 377 L245 377 L223 373 L209 368 L184 354 L170 342 L157 327 L146 309 L138 288 L134 266 L134 253 L132 250 L122 250 L120 253 L120 266 L123 286 L131 310 L146 336 L164 356 L184 371 L206 382 L236 390 L266 391 L290 387 L310 380 L336 365 L356 347 L371 327 L382 305 L390 275 L391 245 L387 221 L380 201 L365 175 L347 155 L322 137 L297 126 L275 121 Z"/>
    <path id="shape-13" d="M90 114 L86 118 L86 123 L111 152 L114 158 L113 161 L109 163 L84 149 L69 149 L58 161 L54 173 L54 181 L97 206 L103 202 L103 195 L70 175 L69 172 L72 165 L78 162 L104 176 L112 177 L120 174 L124 170 L128 158 L122 143 L98 115 Z"/>
    <path id="shape-14" d="M312 83 L312 89 L324 109 L340 108 L346 120 L351 124 L373 123 L376 121 L378 115 L375 110 L358 110 L349 95 L332 95 L325 82 L321 79 L316 79 Z"/>
    <path id="shape-15" d="M430 69 L422 70 L420 78 L447 108 L468 140 L484 176 L495 221 L497 270 L493 302 L483 338 L468 371 L453 395 L437 415 L408 443 L371 468 L338 483 L290 495 L241 497 L203 492 L198 498 L201 505 L240 511 L283 510 L321 503 L365 487 L404 464 L436 437 L464 404 L482 375 L501 328 L509 291 L511 240 L507 208 L495 165 L478 129 L458 99 Z"/>
    <path id="shape-16" d="M327 57 L327 63 L339 83 L355 82 L365 98 L388 97 L391 95 L393 89 L390 84 L373 84 L364 69 L347 69 L340 56 L336 53 L332 53 Z"/>
    <path id="shape-17" d="M173 50 L168 50 L147 62 L144 67 L146 73 L149 75 L159 73 L155 89 L148 90 L145 94 L146 101 L151 104 L145 130 L151 135 L157 133 L164 108 L171 107 L174 104 L173 96 L168 93 L172 78 L174 77 L179 83 L185 83 L189 78 L187 70 L177 53 Z"/>
    <path id="shape-18" d="M292 38 L289 35 L282 35 L273 46 L252 47 L241 66 L232 50 L226 46 L222 47 L219 50 L219 57 L235 88 L238 90 L245 89 L261 60 L271 60 L277 74 L278 87 L275 90 L266 87 L262 88 L258 96 L262 101 L269 104 L277 104 L284 101 L292 90 L291 72 L285 56 L292 45 Z"/>
    <path id="shape-19" d="M346 16 L321 8 L291 2 L240 0 L186 9 L146 24 L107 47 L73 76 L53 99 L37 122 L16 165 L9 186 L2 220 L0 270 L6 313 L20 356 L45 401 L77 439 L95 455 L122 474 L165 495 L179 498 L183 495 L184 491 L180 485 L156 476 L128 461 L97 438 L73 414 L58 395 L43 371 L32 348 L20 311 L14 270 L16 221 L28 173 L43 140 L58 116 L74 96 L96 74 L116 58 L140 43 L185 24 L209 18 L241 14 L290 16 L319 22 L348 32 L371 43 L396 59 L402 59 L405 56 L406 51 L401 45 L371 27 Z"/>
  </g>
</svg>